<svg xmlns="http://www.w3.org/2000/svg" width="218.734" height="414.792" viewBox="0 0 218.734 414.792">
  <defs>
    <style>
      .cls-1 {
        fill: none;
      }

      .cls-1, .cls-2, .cls-3, .cls-4 {
        stroke: #000;
        stroke-linecap: round;
      }

      .cls-1, .cls-2, .cls-3, .cls-4, .cls-5 {
        stroke-miterlimit: 10;
      }

      .cls-2, .cls-6 {
        fill: #fff;
      }

      .cls-4 {
        fill: #727272;
      }

      .cls-5 {
        stroke: #fff;
      }

      .cls-7 {
        fill: gray;
      }
    </style>
  </defs>
  <g id="Group_109" data-name="Group 109" transform="translate(-1401.951 -7331.5)">
    <g id="Group_108" data-name="Group 108" transform="translate(-8.851 1374.952)">
      <g id="Group_107" data-name="Group 107">
        <g id="Group_106" data-name="Group 106">
          <path id="Path_44" data-name="Path 44" class="cls-1" d="M1418.979,6065.984s-11.745,8.681,6.808,18.724c18.533,10.031,25.347,20.138,25.362,20.161,8.317,12.349-.133,30.03-5.4,41.882-7.684,17.293-14.781,34.914-22.008,52.407-8.081,19.56-13.794,40.4-12.178,61.739.872,11.512,3.19,22.962,8.034,33.488,10.093,21.931,43.629,41.7,64.956,23.621,1.957-1.659,3.892-3.158,5.253-5.4a7.825,7.825,0,0,0-3.4-11.224c-3.869-1.724-8.9,1.08-10.6,4.655a4.854,4.854,0,0,0,2.749,6.695c2.17.7,4.426-.021,4.766-5.724l5.356-3.672"/>
          <path id="Path_45" data-name="Path 45" class="cls-2" d="M1538.275,6180.843s-2.445,91.78,19.257,173.482h43.745s22.838-108.17,16.781-186.936"/>
          <path id="Path_46" data-name="Path 46" class="cls-2" d="M1533.532,6078.92v101.617s66.213,5.958,94.3-20.255c0,0-7.437-37.867-7.826-62.3"/>
          <path id="Path_47" data-name="Path 47" class="cls-3" d="M1584.7,6026.52c-1.08-.69-2.17-1.34-3.25-1.94a29.273,29.273,0,0,1-5.62-4.2c-9.67-9-16.79-24.52-16.79-24.52s7.85-2.56,3.9-9.32c-3.82-6.53-7.52,2.51-7.78,3.15.07-.44.57-4.6-6.17-5.51a7.376,7.376,0,0,1-6.86-7.47v-8.43s-12.15,15.29-22.6,22.73a34.42,34.42,0,0,1-3.19,2.04c-10.98,6.13-13.02-1.66-13.02-1.66s-7.28-12,24.25-26.81c0,0,4.09-7.66,10.6-7.53s5.36,4.21,5.36,4.21,9.19-6.64,14.43-1.4,4.47,15.44,4.47,15.44,7.78-3.19,8.68,2.3-9.18,23.876,4.72,42.78"/>
          <path id="Path_48" data-name="Path 48" class="cls-2" d="M1584.7,6026.52c11.3,7.15,22.15,18.1,22.15,18.1a35.653,35.653,0,0,1,7.16,9.88"/>
          <path id="Path_49" data-name="Path 49" class="cls-2" d="M1620,6081.39c-.07,6.88-.2,12.28-.35,16.51-.39,11.23-.93,14.13-.93,14.13s-7.53,24.89-34.72,26.81-36.26-37.66-36.26-37.66-2.29-9.2-1.27-17.75a18,18,0,0,0,1.74-1.28,34.192,34.192,0,0,0,4.6-4.56,38.484,38.484,0,0,0,7.19-13.18s7.7,12.3,14.84,23.61c6.03,9.58,11.67,18.46,11.84,18.52a97.774,97.774,0,0,1-3.24-16.62c-.99-9.45-.56-20.68,5.28-27.3,11.49-13.02,25.29-8.12,25.29-8.12C1617.16,6060.54,1620.12,6069.44,1620,6081.39Z"/>
          <circle id="Ellipse_3" data-name="Ellipse 3" class="cls-2" cx="7.149" cy="7.149" r="7.149" transform="translate(1532.808 5988.197)"/>
          <circle id="Ellipse_4" data-name="Ellipse 4" class="cls-2" cx="7.149" cy="7.149" r="7.149" transform="translate(1519.532 5999.687)"/>
          <path id="Path_50" data-name="Path 50" class="cls-2" d="M1536.638,6009.388s1.405,6.894,5.49,1.66"/>
          <path id="Path_51" data-name="Path 51" class="cls-2" d="M1548.894,6009.388s1.276,8.171-5.362,7.4"/>
          <path id="Path_52" data-name="Path 52" class="cls-2" d="M1519.532,5991.007a48.309,48.309,0,0,0,2.428,10.469"/>
          <path id="Path_53" data-name="Path 53" class="cls-2" d="M1530.271,6013.01s13.644,27.655,26.155,7.23"/>
          <path id="Path_54" data-name="Path 54" class="cls-2" d="M1567.915,6193.474a43.78,43.78,0,0,1,5.957,21.829"/>
          <path id="Path_55" data-name="Path 55" class="cls-2" d="M1530.271,6099.176s-15.462-14.128-34.186-23.319c0,0,1.362,17.361-7.149,20.936,0,0,25,45.318,44.587,35.765"/>
          <path id="Path_56" data-name="Path 56" class="cls-2" d="M1494.383,6076.963s-3.149-11.489-17.617-8a56.066,56.066,0,0,1-11.489,2.042c-5.107.171-.681,3.83-.681,3.83a23.622,23.622,0,0,0,14,1.022s-.728,11.489,11.017,10.638"/>
          <path id="Path_57" data-name="Path 57" class="cls-2" d="M1558.213,6061.857s-16.39-16.888-36.253-14.937c-10.73,1.055,10.785,7.433,10.785,7.433s-17.426,15.993,2.361,5.589c0,0-18.063,16.161,3.256,4.219,0,0-17.614,11.738.225,8.1,0,0,2.855-.638,4.761,3s9.46,2.325,9.46,2.325"/>
          <path id="Path_58" data-name="Path 58" class="cls-2" d="M1552.427,6038.112a30.788,30.788,0,0,0,0-12.913"/>
          <path id="Path_59" data-name="Path 59" class="cls-2" d="M1575.834,6020.385s-12.132,18.62-25.281,17.727l2.206-4.341s-7.823,2.145-16.121,14.86"/>
          <path id="Path_60" data-name="Path 60" class="cls-2" d="M1525.787,6089.814s.558-13,3.279-21.308"/>
          <path id="Path_61" data-name="Path 61" class="cls-2" d="M1423.4,6077.422s19.745-19.948,38.128-19.778c0,0,4.085-10.317-8.341-9.669s-34.212,18.009-34.212,18.009S1428.851,6067.582,1423.4,6077.422Z"/>
          <line id="Line_10" data-name="Line 10" class="cls-1" y1="4.976" x2="10.918" transform="translate(1480.247 6307.942)"/>
          <path id="Path_62" data-name="Path 62" class="cls-2" d="M1453.634,6058.694s5.023,7.679,16.694,11.74"/>
          <path id="Path_63" data-name="Path 63" class="cls-1" d="M1492.931,6103.386a83.9,83.9,0,0,1,.017,18.228,96.16,96.16,0,0,1-3.435,18.1c-1.908,6.5-4.921,12.431-7.8,18.542-5.694,12.08-10.715,24.465-15.329,37-4.381,11.9-8.89,23.791-10.91,36.354-1.877,11.677-1.95,24.988,1.386,36.437,4.132,14.183,22.085,28.534,36.536,19.52"/>
          <path id="Path_64" data-name="Path 64" class="cls-1" d="M1477.406,6303.786s18.892-15.206,29.615-37.163c0,0,13.277,3.461,4.341,18.581s-21.756,27.714-21.756,27.714"/>
          <path id="Path_65" data-name="Path 65" class="cls-4" d="M1578.636,6354.325l-2.381,16.511h52.6l-1.362-4.255-26.213-12.255"/>
          <circle id="Ellipse_5" data-name="Ellipse 5" class="cls-5" cx="1.915" cy="1.915" r="1.915" transform="translate(1536.766 5994.899)"/>
          <circle id="Ellipse_6" data-name="Ellipse 6" class="cls-5" cx="1.915" cy="1.915" r="1.915" transform="translate(1522.851 6006.835)"/>
          <path id="Path_66" data-name="Path 66" class="cls-4" d="M1573.87,6354.57v16.27h-40.51v-3.58l24.17-12.94Z"/>
        </g>
        <path id="Path_67" data-name="Path 67" class="cls-6" d="M1482.129,6308.407l9.6-4.38a8.466,8.466,0,0,1-1.55,4.98,20.324,20.324,0,0,1-5.06,5.08c-27.91,23.66-60.97-16.61-60.97-16.61s-9.03-12.43-12.26-40.53,7.32-48.49,14.13-66.37,18.72-43.23,25.53-62.63a60.037,60.037,0,0,0,2.13-7.49h39.53a88.994,88.994,0,0,1-9.11,30.29,336,336,0,0,0-20.8,50.68s-9.45,22.86-8.3,43.03,2.04,29.49,21.7,40.72c0,0,7.77,4.29,17.12-1.44a130.768,130.768,0,0,1-14.45,14.97,8.022,8.022,0,0,0-1.27,1.07.429.429,0,0,0-.07.06.213.213,0,0,1-.05.04,8.134,8.134,0,0,0-1.6,2.24,4.854,4.854,0,0,0,2.74,6.7,3.673,3.673,0,0,0,1.72.18,2.372,2.372,0,0,0,1.28-.58Z"/>
        <path id="Path_68" data-name="Path 68" class="cls-7" d="M1508.171,6285.8c-8.93,15.12-21.75,27.72-21.75,27.72a8.467,8.467,0,0,0,1.55-4.98c-.1-1.9-1.09-3.92-3.58-5.87-2.41-1.89-4.52-3.715-7.24-1.825,3.1-3.587,6.4-5.416,12.91-12.595a91.7,91.7,0,0,0,13.77-21.03S1517.111,6270.677,1508.171,6285.8Z"/>
        <path id="Path_69" data-name="Path 69" class="cls-7" d="M1533.532,6115.383l.021,16.819s-6.893,6.7-23.442-7.413C1510.111,6124.789,1531.34,6138.362,1533.532,6115.383Z"/>
        <path id="Path_70" data-name="Path 70" class="cls-7" d="M1617.063,6167.952s-29.683,17.584-78.788,12.891l-.082,12.631S1588.7,6191.415,1617.063,6167.952Z"/>
      </g>
      <line id="Line_11" data-name="Line 11" class="cls-4" y2="161.096" transform="translate(1573.872 6193.474)"/>
    </g>
  </g>
</svg>
