<svg xmlns="http://www.w3.org/2000/svg" width="270.79" height="169" viewBox="0 0 270.79 169">
  <g id="Group_91" data-name="Group 91" transform="translate(-824.605 -455.5)">
    <g id="Group_87" data-name="Group 87">
      <g id="Group_83" data-name="Group 83">
        <g id="Group_82" data-name="Group 82">
          <path id="Path_32" data-name="Path 32" d="M949.119,482.816l-3.353,3.659c-.821.891-1.642,1.642-2.463,2.393-1.14,1.044-2.059,1.809-2.949,2.491a27.249,27.249,0,0,1-11.493,5.426,26.387,26.387,0,0,1-4.689.4,51.321,51.321,0,0,1-14.359-2.532c-4.508-1.364-8.947-2.811-14.234-4.55q-7.993-2.65-15.973-5.385-6.533-2.233-13.037-4.508l-5.079-1.781L824.6,490.761,862.45,468.1l51.328,17.058c.724.237,1.434.487,2.143.738a51.138,51.138,0,0,0,6.094,1.836,34.747,34.747,0,0,0,11.66.418,36.948,36.948,0,0,0,8.084-1.99c.974-.362,1.864-.709,2.88-1.2Z" fill="#363636"/>
        </g>
      </g>
      <g id="Group_85" data-name="Group 85">
        <g id="Group_84" data-name="Group 84">
          <path id="Path_33" data-name="Path 33" d="M910.773,533.323a3.062,3.062,0,0,1-3.047,3.075H883.933c.014,4.953,3.785,8.974,8.432,8.974a7.847,7.847,0,0,0,4.884-1.683l5.565-4.355-4.2,5.677a10.907,10.907,0,0,1-19.465-8.613H870.6a3.054,3.054,0,0,1,0-6.108h37.122A3.043,3.043,0,0,1,910.773,533.323Z" fill="#363636"/>
        </g>
      </g>
      <g id="Group_86" data-name="Group 86">
        <path id="Path_34" data-name="Path 34" d="M1048.033,533.74a36.118,36.118,0,0,0-12.746-18.9,39.969,39.969,0,0,0-3.742-2.588l15.04-14.372-1.613,12.939,10.1,1.267,5.2-41.38L1021.6,507.666a44.026,44.026,0,0,0-31.946,2.24l.4-17.837,8,10.3,8.056-6.261L980.523,463.17,979.3,516.752a43.637,43.637,0,0,0-5.509,5.913q-2.9,3.758-5.455,4.2a3.213,3.213,0,0,1-.876.083l-.167-.125a31.476,31.476,0,0,0-8.126-5.064,23.221,23.221,0,0,0-11.6-1.517,25.147,25.147,0,0,0-12.968,6.206,13.641,13.641,0,0,0-2.908-10.77,13.468,13.468,0,0,0-10.449-4.981h-66.7a13.47,13.47,0,0,0-10.449,4.981,13.658,13.658,0,0,0-2.8,11.41l7.541,36.593a14.371,14.371,0,0,0,14.011,11.493h50.09A14.373,14.373,0,0,0,926.941,563.7l4.466-21.65a19.409,19.409,0,0,0,10.338-4.856l.251-.237c1.655-1.641,4.271-3.673,7.276-4.076a10.676,10.676,0,0,1,5.232.737,21.208,21.208,0,0,1,4.926,3.228l.6.473c2.7,2.1,6.331,2.825,10.491,2.115,4.911-.862,9.406-3.868,13.343-8.96a31.1,31.1,0,0,1,43.634-5.552,23.633,23.633,0,0,1,4.2,33.115,17.623,17.623,0,0,1-24.7,3.144,12.833,12.833,0,0,1-2.282-17.976,8.97,8.97,0,0,1,12.592-1.6,5.9,5.9,0,0,1,1.183,8.084c-.014,0-.014.014-.028.027a6.4,6.4,0,1,0,10.324,7.514,18.669,18.669,0,0,0-3.687-25.7,21.689,21.689,0,0,0-30.458,3.868,25.354,25.354,0,0,0-5.148,18.867,26.046,26.046,0,0,0,1.225,5.232L972.634,575.44l2.142-12.87-10.045-1.67-6.874,41.143,38.221-33.671a24.852,24.852,0,0,0,3.131,2.88,30,30,0,0,0,18.505,6.345,30.5,30.5,0,0,0,3.9-.237c.376-.056.766-.111,1.141-.167l5.914,22.22-10.547-7.652-5.983,8.251L1045.9,624.5l-13.483-50.646a30.166,30.166,0,0,0,9.35-8.028,35.906,35.906,0,0,0,7.514-19.577l16.182,9.378-9.949,1.6a2.964,2.964,0,0,0-2.463,3.4l1.141,7.124,41.2-6.568Zm-123.1-8.612L917.4,561.735a4.6,4.6,0,0,1-4.466,3.7H862.84a4.592,4.592,0,0,1-4.466-3.7l-7.542-36.607a3.976,3.976,0,0,1,.807-3.3,3.7,3.7,0,0,1,2.894-1.391h66.7a3.7,3.7,0,0,1,2.894,1.391A3.969,3.969,0,0,1,924.937,525.128Z" fill="#363636"/>
      </g>
    </g>
    <g id="Group_90" data-name="Group 90">
      <g id="Group_88" data-name="Group 88">
        <path id="Path_35" data-name="Path 35" d="M1086.5,470.223a5.65,5.65,0,0,1-4.079,1.594,5.272,5.272,0,0,1-5.685-5.533,5.4,5.4,0,0,1,5.685-5.656,5.533,5.533,0,0,1,3.939,1.64l-1.349,1.3a3.688,3.688,0,0,0-2.59-1.012,3.516,3.516,0,0,0-3.692,3.725,3.436,3.436,0,0,0,3.692,3.633,3.961,3.961,0,0,0,2.7-1.088Z" fill="#363636"/>
      </g>
      <g id="Group_89" data-name="Group 89">
        <path id="Path_36" data-name="Path 36" d="M1081.968,477.052a10.776,10.776,0,1,1,10.776-10.776A10.788,10.788,0,0,1,1081.968,477.052Zm0-20.559a9.783,9.783,0,1,0,9.783,9.783A9.794,9.794,0,0,0,1081.968,456.493Z" fill="#363636"/>
      </g>
    </g>
  </g>
</svg>
