<svg xmlns="http://www.w3.org/2000/svg" viewBox="0 0 175.56 148.18"><defs><style>.cls-1{fill:#444;}</style></defs><g id="Layer_2" data-name="Layer 2"><g id="Layer_1-2" data-name="Layer 1"><path class="cls-1" d="M141.53,140.75c-2.74,3.78-6.26,5.9-11.08,5.64-2-.12-4,.12-6,.16a7.29,7.29,0,0,1-6.42-3.19,3.08,3.08,0,0,0-1.91-1.1c-7.91-1-15.81-.12-23.71.23-3.94.17-7.89,0-11.84-.08-.51,0-1-.09-1.54-.06-4.36.26-8.72.51-13.08.81q-4.66.32-9.32.77a3.13,3.13,0,0,0-1.47.75c-3.31,2.66-7.13,3.45-11.3,3.5a13.86,13.86,0,0,1-7.47-2.27c-1.3-.76-3.33-.31-5-.33-6.31-.06-12.62-.14-18.92-.1-2.42,0-4.83.44-7.25.47a14.69,14.69,0,0,1-4.15-.66c-.46-.13-.72-.95-1.08-1.46.53-.31,1.17-1,1.58-.89,4.08,1.12,8.1-.19,12.14-.19q6.3,0,12.58,0c.51,0,1,.08,1.53.07,1.64-.05,2.6-.43,3-2.51C32,134.15,33.56,128,35,121.87c1.1-4.87,2-9.79,3.28-14.61,1.49-5.7,3.43-11.27,4.87-17,1.26-5,2.09-10.06,3.1-15.09-4.22,1.28-8.3,2.43-12.33,3.75-3.4,1.11-4.81.31-5.71-3.12a17.65,17.65,0,0,1,.23-10.4c1.19-3.56,2-7.26,3.35-10.77s3.94-5.8,7.07-7.77c2.47-1.55,4.6-3.63,6.92-5.42A18.39,18.39,0,0,1,48.14,40c.33-.18.82-.12,1.09-.35,3.7-3.13,7.68-1.89,11.63-.72,1.61.48,3.12,1.32,4.74,1.71a5.92,5.92,0,0,0,2.52-.51c3.49-.9,7-1.83,10.45-2.73a7.22,7.22,0,0,1,1.14-.11C83.83,36.82,88,35.92,92.06,36c4.87.11,9.85.45,14.3,3a2.85,2.85,0,0,0,2.22,0c3.67-1.5,7.21-3.34,11-4.6a10.39,10.39,0,0,1,5.29.21,47.72,47.72,0,0,1,7.85,2.48c2.67,1.13,4.12,3.39,5,6.2,2.32,7.48,4.05,15,4,22.92-.05,5.12-.34,5.93-5.68,5.45-2-.17-4-.53-6.28-.85l.75,2.13a21.7,21.7,0,0,1,3.17.51c2.25.72,3.14,2.66,2.66,5a2.65,2.65,0,0,0,.7,1.86c1.68,2,2,4.7.56,5.86-1.15.9-2.46,1.59-3.7,2.38l-.57.34c.75,4.08,1.56,8.16,2.26,12.27.81,4.71,1.5,9.45,2.29,14.17.34,2,.84,4,1.21,6,.51,2.75.89,5.53,1.45,8.26s1.17,5.18,1.87,7.73a1.71,1.71,0,0,0,1.24.92c1.57.17,3.16.17,4.74.25,4,.21,8,.41,12,.64,4.33.25,8.65.59,13,.75,1.09.05,2.37-.06,2.32,1.22,0,1.06-1.11,1.65-2.44,1.57-3.5-.21-7-.27-10.52-.39a3.71,3.71,0,0,1-.57,0c-6-1.45-12.08-.65-18.11-1.12A18.21,18.21,0,0,1,141.53,140.75Zm-24.92-1.86c.2-1.83.07-3.62.63-5.17,1.17-3.24,2.48-6.6,6.58-7.18,1.32-.19,2.86.27,4-.25,1.68-.78,3-.11,4.41.33s3.1,1,5.11,1.69c-1.91-11.11-3.74-21.77-5.63-32.78-4.07,1.93-5.45-1.1-7.38-3.13-1.3.91-2.44,2.1-3.83,2.56s-3.28.67-4.23,0-1.41-2.61-1.53-4,.49-2.68.8-4.14a9.15,9.15,0,0,0-1.09-.22,60.66,60.66,0,0,0-6.84-.57c-1.58,0-3.5.17-4.64,1.07a8.83,8.83,0,0,1-8.11,1.54c-2.64-.71-5.06-2.26-7.54-3.5-1-.47-1.66-.86-2.73,0-3,2.51-6.37,4.3-10.51,3.34-1-.24-2-.9-3-.95a68.2,68.2,0,0,0-7.29,0c-2.16.13-4.3.57-6.46.67-.58,0-1.19-.73-1.79-1.13.37-.48.69-1.33,1.1-1.37,3.58-.41,7.17-.64,10.75-1a2.09,2.09,0,0,0,1.44-1c.72-1.61,1.13-1.76,2.44-.52.74.69,1.31,1.7,2.17,2.09,3.31,1.49,8.51-.18,10-3.59.81-1.86.68-4.27.46-6.38-.1-.9-1.51-1.65-2.32-2.47-.28-.27-.75-.51-.79-.81a5.7,5.7,0,0,1,0-2.72A2.63,2.63,0,0,1,82.65,68c1.69-.14,3.4.07,5.1.09s2.76,1.1,2.21,2.7a11.55,11.55,0,0,1-2.21,3.47c-1.37,1.63-1.8,6.67-.26,7.67,2.7,1.74,5.2,4.12,8.68,4.13A4.41,4.41,0,0,0,99,85a62,62,0,0,0,4.18-5c-.21-.07.08-.06.13,0a5.28,5.28,0,0,0,5.42,3.44c1.67,0,3.34.21,5.06.32.2-2-1.35-4,1.34-4.9,1.64-.54,3.24-1.22,4.79-1.81.56-1.43.79-3.45,1.93-4.44s3.12-.85,4.62-1.18c-.6-2.91-1.27-6-1.82-9.08-.1-.51.32-1.12.5-1.68.58.35,1.36.58,1.68,1.09s.25,1.53.57,2.2c.55,1.16,1,2.79,2,3.24a22.68,22.68,0,0,0,6.39,1.7c2.66.36,3,0,3-2.75a66.57,66.57,0,0,0-3.63-20.92c-.92-2.9-2.42-5.23-5.45-6.22a45.16,45.16,0,0,0-6.25-1.86c-1.91-.34-3.91-.51-5.77.7-.93.61-2.21.68-3.18,1.24-1.46.83-3.86.7-3.73,3.4,0,.23-1.18.79-1.76.73a10.87,10.87,0,0,1-2.66-1c-2.17-.88-4.27-2.26-6.52-2.57a82.23,82.23,0,0,0-13.3-.84,47.19,47.19,0,0,0-11.36,1.54c-3.89,1.06-7.55,3-11.34,4.42a1.81,1.81,0,0,1-1.65-.32c-.27-.35,0-1.15.1-1.71.08-.28.49-.47,1-1a19.29,19.29,0,0,1-3.48-.53c-4.64-1.67-8.69-.78-12.45,2.35a89,89,0,0,1-7.68,5.73,14.17,14.17,0,0,0-6.27,8c-.72,2.51-1.1,5.14-2,7.58a16.48,16.48,0,0,0-.63,10.33c.38,1.45.92,2,2.42,1.35,1.75-.69,3.58-1.15,5.36-1.75,1.5-.5,3-1,4.46-1.62s2.7-1.29,4.24-2c.72-2.26,1.48-4.9,2.46-7.46.25-.65,1.21-1,1.84-1.53.19.77.69,1.63.52,2.31-1.49,6-3.15,12-4.65,18-1.39,5.58-2.56,11.22-4,16.79-1,4.08-2.38,8.09-3.45,12.16s-2.12,8.29-3,12.48c-.54,2.57-.78,5.21-1.18,8,2.63-1.23,4.85-2.43,7.19-3.31,3.33-1.25,6.18.76,9.11,1.8a10.27,10.27,0,0,1,3.72,2.61c2.12,2.19,2.44,4.94,1.69,8.08,2.17-.3,4.16-.67,6.16-.83,2.76-.23,2.75-.17,2.67-2.85-.08-2.86-.52-5.79,1.2-8.38a5.31,5.31,0,0,1,1.19-1c.23.54.67,1.09.65,1.63,0,1.47-.32,2.92-.44,4.39-.15,1.82-.23,3.64-.35,5.66,2.87,0,5.49,0,8.09,0,1.59-.05,3.17-.39,4.75-.41s3.29.3,4.93.26c4.72-.12,9.45-.23,14.16-.56,3.32-.23,3.3-.39,3.09-3.8,0-.83,0-1.67,0-2.5,0-1.33,0-2.6,1.69-2.89-1.58-4.95-1.58-4.95,2-5.35-1.22-4.11-2.33-8.17-3.69-12.14-.38-1.1-.35-1.87.6-2.14a2.12,2.12,0,0,1,1.87.94c1.38,4.7,2.67,9.44,3.79,14.21a3.34,3.34,0,0,1-1,2.58,3.14,3.14,0,0,0-1,2.45,27.75,27.75,0,0,1-1,6.36c-.5,1.68-.53,2.06,1.25,2.09C111,138.91,113.87,138.89,116.61,138.89Zm12,5.09a38.05,38.05,0,0,0,6.27-.85c4.62-1.34,6.71-6.81,3.5-10.48-1.92-2.19-4.54-2.42-6.84-3.52-2.9-1.37-5.81-.68-8.38.75-3.93,2.19-4.61,8.21-2.84,11.76a4.28,4.28,0,0,0,2.65,1.9A38,38,0,0,0,128.58,144ZM46.5,131.18c-4.47.06-7,1.86-9.47,3.85a4.17,4.17,0,0,0-1.14,2.14c-.73,3,1.81,7.07,4.87,7.81A16.17,16.17,0,0,0,52,143.84a6.17,6.17,0,0,0,3.49-6.27c-.26-2.1-1.94-3-3.35-4.15A10.27,10.27,0,0,0,46.5,131.18Zm76.81-44.44a5.14,5.14,0,0,0-6,4.28,1.64,1.64,0,0,0,.43,1.33,1.83,1.83,0,0,0,1.57.24A7.73,7.73,0,0,0,123.31,86.74Zm3.44.33c-1.38,2.07,0,3.39,1,4.72a3.5,3.5,0,0,0,1.94,1.39c.46.06,1.47-.87,1.49-1.39a3.85,3.85,0,0,0-.85-2.72A17.49,17.49,0,0,0,126.75,87.07Zm-4.13-3.46c-.71-2.68-2.61-3.87-4.59-3.16-.55.19-1.28.89-1.29,1.38a2,2,0,0,0,1.17,1.48A39.57,39.57,0,0,0,122.62,83.61Zm2.26-2.67,1.05-.21a25,25,0,0,0,.4-4.45c0-.66-1-1.25-1.54-1.87-.52.71-1.54,1.49-1.45,2.1A23.77,23.77,0,0,0,124.88,80.94Zm4.68,3.64c2.95,1.93,4,1.29,5.61-.14a2.13,2.13,0,0,0,.34-1.71c0-.22-1-.56-1.35-.41C132.65,83,131.21,83.76,129.56,84.58Zm-.66-3.8c2.43-.23,3.57-1.71,4.67-3.13.26-.33,0-1.18-.23-1.71-.07-.17-.89-.28-1.13-.1A7.63,7.63,0,0,0,128.9,80.78Z"/><path class="cls-1" d="M83.68,3.63a26.57,26.57,0,0,1,2.37-2.47c2.92-2.35,6.14-1,6.79,2.72A10.55,10.55,0,0,1,90.66,12a39.43,39.43,0,0,1-6.35,6.23A2.52,2.52,0,0,1,82,17.89c-2.64-2.39-5.24-4.85-7.67-7.46-1.83-2-2.06-4.54-1.52-7A3.57,3.57,0,0,1,74.74,1.3c2.78-1.21,5.46-1,7.68,1.35a9.36,9.36,0,0,0,1,.89A.55.55,0,0,0,83.68,3.63Zm6.54,1.19C90,4.46,89.61,3.58,89,3.21c-.33-.19-1.31.41-1.76.88A8,8,0,0,0,86,6.22c-1,2.17-2.36,2.27-3.84.32A10.81,10.81,0,0,0,80,4.37c-1.23-.91-2.66-1.44-4-.35-.92.73-.65,2.88.39,4.23a7,7,0,0,0,.53.56c1.81,1.8,3.58,3.63,5.45,5.37a1.8,1.8,0,0,0,1.61.35C87.52,12.51,89.48,9.35,90.22,4.82Z"/><path class="cls-1" d="M63.78,127.49a25.59,25.59,0,0,1,1.89-3.1,1.75,1.75,0,0,1,1.49-.35,1.33,1.33,0,0,1,.54,1.16A17.19,17.19,0,0,0,66,134.47a1.38,1.38,0,0,1-.31.69c0,.09-.21.11-.32.17s-.32,0-.35-.1c-1.49-3.36-3.89-6.32-3.32-10.47s2.27-8.08,4-11.91c.53-1.14,1.34-1.51,2.25-.87.36.26.39,1.44.14,2C66.3,118.19,64,122.21,63.78,127.49Z"/><path class="cls-1" d="M104.42,69.65c-1.46,0-5.36-2.68-5.85-4.06s.71-2.89,2-2.32c2,.91,4.34,1.66,5.34,4A1.55,1.55,0,0,1,104.42,69.65Z"/><path class="cls-1" d="M73.11,64.77a13.64,13.64,0,0,1-1.49,1.56c-1.61,1.2-3.24,2.4-4.93,3.49-.38.24-1.3.29-1.51,0a2.27,2.27,0,0,1-.53-1.8c.59-2,4.76-4.82,6.78-4.56C72,63.58,72.43,64.23,73.11,64.77Z"/></g></g></svg>