<svg xmlns="http://www.w3.org/2000/svg" viewBox="0 0 592.27 61.24"><defs><style>.cls-1{fill:#363636;}</style></defs><g id="Layer_2" data-name="Layer 2"><g id="Layer_1-2" data-name="Layer 1"><path class="cls-1" d="M0,19.94H16.19c11.81,0,19.61,7.8,19.61,19.85,0,11.87-7.56,20.86-20,20.86H0ZM8.8,53.56h6.62c7.8,0,11.29-5.85,11.29-13.77C26.71,33.11,23.46,27,15.48,27H8.8Z"/><path class="cls-1" d="M57.66,19.94V44.16c0,7.86,4,10.16,8.45,10.16,5,0,8.15-2.71,8.15-10.16V19.94h8.87V43.75C83.13,57.69,75,61.24,66,61.24c-9.21,0-17.13-3.73-17.13-17.31v-24Z"/><path class="cls-1" d="M98.31,19.94H114.5c11.81,0,19.61,7.8,19.61,19.85,0,11.87-7.56,20.86-20,20.86H98.31Zm8.8,33.62h6.62c7.8,0,11.28-5.85,11.28-13.77C125,33.11,121.76,27,113.79,27h-6.68Z"/><path class="cls-1" d="M175.76,43.1h-19.5V53.44h21.51l-1.06,7.21h-29V19.94h28.89v7.21H156.26v8.68h19.5Z"/><path class="cls-1" d="M218.48,27.15H206.07V19.94h33.56v7.21H227.28v33.5h-8.8Z"/><path class="cls-1" d="M287.19,40.14c0,11.35-6.8,21.1-20,21.1-12.82,0-19.5-9.28-19.5-21s7.39-20.91,20-20.91C279.62,19.35,287.19,27.68,287.19,40.14Zm-30.43-.06c0,8,3.49,14,10.69,14,7.86,0,10.64-6.56,10.64-13.83,0-7.74-3.19-13.76-10.75-13.76C260,26.5,256.76,32.17,256.76,40.08Z"/><path class="cls-1" d="M321,19.94h16.19c11.81,0,19.61,7.8,19.61,19.85,0,11.87-7.56,20.86-20,20.86H321Zm8.8,33.62h6.62c7.8,0,11.28-5.85,11.28-13.77,0-6.68-3.25-12.76-11.22-12.76h-6.68Z"/><path class="cls-1" d="M407.89,40.14c0,11.35-6.8,21.1-20,21.1-12.82,0-19.5-9.28-19.5-21s7.39-20.91,20-20.91C400.32,19.35,407.89,27.68,407.89,40.14Zm-30.43-.06c0,8,3.48,14,10.69,14,7.86,0,10.64-6.56,10.64-13.83,0-7.74-3.19-13.76-10.76-13.76C380.65,26.5,377.46,32.17,377.46,40.08Z"/><path class="cls-1" d="M459,40.14c0,11.35-6.79,21.1-20,21.1-12.82,0-19.5-9.28-19.5-21s7.39-20.91,20-20.91C451.43,19.35,459,27.68,459,40.14Zm-30.43-.06c0,8,3.49,14,10.7,14,7.85,0,10.63-6.56,10.63-13.83,0-7.74-3.19-13.76-10.75-13.76C431.75,26.5,428.56,32.17,428.56,40.08Z"/><path class="cls-1" d="M472.58,19.94h16.19c11.81,0,19.61,7.8,19.61,19.85,0,11.87-7.56,20.86-20,20.86H472.58Zm8.8,33.62H488c7.8,0,11.28-5.85,11.28-13.77C499.28,33.11,496,27,488.06,27h-6.68Z"/><path class="cls-1" d="M522,19.94h8.8v33.5H551.1l-1,7.21H522Z"/><path class="cls-1" d="M590.27,43.1h-19.5V53.44h21.5l-1.06,7.21h-29V19.94h28.89v7.21H570.77v8.68h19.5Z"/><path class="cls-1" d="M106,2.19A9.88,9.88,0,0,1,110.23.12a6.17,6.17,0,0,1,3.7.38,16.63,16.63,0,0,1,3.26,2c1.07.84,2.13,1.74,3.16,2.7a34.28,34.28,0,0,0,3.11,2.6,9.43,9.43,0,0,0,3.42,1.61,6.26,6.26,0,0,0,3.76-.27,9.93,9.93,0,0,1-4.23,2.34,5.89,5.89,0,0,1-3.65-.27,13.34,13.34,0,0,1-3.14-2c-1-.82-2-1.74-3-2.74a30.88,30.88,0,0,0-3.06-2.68A10.15,10.15,0,0,0,110,2.12,7.19,7.19,0,0,0,106,2.19Z"/><path class="cls-1" d="M563.53,2.19A9.88,9.88,0,0,1,567.76.12a6.16,6.16,0,0,1,3.7.38,16.34,16.34,0,0,1,3.26,2c1.08.84,2.13,1.74,3.17,2.7A33,33,0,0,0,581,7.81a9.46,9.46,0,0,0,3.41,1.61,6.25,6.25,0,0,0,3.76-.27A9.84,9.84,0,0,1,584,11.49a5.88,5.88,0,0,1-3.65-.27,13.2,13.2,0,0,1-3.15-2c-1-.82-2-1.74-3-2.74a30.88,30.88,0,0,0-3.06-2.68,10.11,10.11,0,0,0-3.49-1.73A7.22,7.22,0,0,0,563.53,2.19Z"/><path class="cls-1" d="M474.51,2.19A9.88,9.88,0,0,1,478.74.12a6.17,6.17,0,0,1,3.7.38,16.34,16.34,0,0,1,3.26,2c1.08.84,2.13,1.74,3.16,2.7A35.71,35.71,0,0,0,492,7.81a9.5,9.5,0,0,0,3.42,1.61,6.25,6.25,0,0,0,3.76-.27,9.82,9.82,0,0,1-4.23,2.34,5.85,5.85,0,0,1-3.64-.27,13.2,13.2,0,0,1-3.15-2c-1-.82-2-1.74-3-2.74A30.88,30.88,0,0,0,482,3.85a10.15,10.15,0,0,0-3.5-1.73A7.19,7.19,0,0,0,474.51,2.19Z"/></g></g></svg>